<svg viewBox="0 0 1280 332" xmlns="http://www.w3.org/2000/svg" xmlns:xlink="http://www.w3.org/1999/xlink" width="1280.000000" height="332.000000" fill="none" clip-path="url(#clipPath_4)" customFrame="url(#clipPath_4)">
	<defs>
		<clipPath id="clipPath_4">
			<rect width="1280.000000" height="332.000000" x="0.000000" y="0.000000" rx="30.000000" fill="rgb(255,255,255)" />
		</clipPath>
		<g id="pixso_custom_effect_9">
			<effect x="0.000000" y="0.000000" visibility="visible" fill="rgb(127,216,106)" fill-opacity="0.5" effectType="dropShadow" stdDeviation="30" radius="0" />
		</g>
		<filter id="filter_9" width="868.319336" height="235.117188" x="205.343750" y="38.843750" filterUnits="userSpaceOnUse" customEffect="url(#pixso_custom_effect_9)" color-interpolation-filters="sRGB">
			<feFlood flood-opacity="0" result="BackgroundImageFix" />
			<feOffset dx="0.000000" dy="0.000000" in="SourceAlpha" />
			<feGaussianBlur stdDeviation="10" />
			<feColorMatrix type="matrix" values="0 0 0 0 0.498039 0 0 0 0 0.847059 0 0 0 0 0.415686 0 0 0 0.5 0 " />
			<feBlend result="effect_dropShadow_1" in2="BackgroundImageFix" mode="normal" />
			<feBlend result="shape" in="SourceGraphic" in2="effect_dropShadow_1" mode="normal" />
		</filter>
		<linearGradient id="paint_linear_7" x1="210.000046" x2="1069.00024" y1="165.999969" y2="166" gradientUnits="userSpaceOnUse">
		   <stop stop-color="rgb(122,199,85)" offset="0" />
		   <stop stop-color="rgb(149,255,147)" offset="0.2" />
		   <stop stop-color="rgb(122,199,85)" offset="0.6" />
		   <stop stop-color="rgb(149,255,147)" offset="0.8" />
		   <stop stop-color="rgb(122,199,85)" offset="1" />

			<animate xmlns="http://www.w3.org/2000/svg" attributeName="x1" from="-100%" to="100%" dur="5s" repeatCount="indefinite" />
			<animate xmlns="http://www.w3.org/2000/svg" attributeName="x2" from="0%" to="200%" dur="5s" repeatCount="indefinite" />
		</linearGradient>
	</defs>
	<rect id="biz" width="1280.000000" height="332.000000" x="0.000000" y="0.000000" rx="30.000000" />
	<g filter="url(#filter_9)">
		<path id="" d="M272.872 119.727L272.872 112.039L335.661 112.039C338.356 112.039 339.88 113.469 339.88 115.883C339.88 118.273 338.356 119.727 335.661 119.727L272.872 119.727ZM346.231 137C360.341 137 370.231 128.352 370.231 115.883C370.231 103.391 360.341 94.7656 346.231 94.7656L272.872 94.7656L272.872 87.0781L367.348 87.0781L367.348 69.8047L242.544 69.8047L242.544 137L346.231 137ZM504.631 69.8047L474.28 69.8047L407.272 108.195L407.272 69.8047L376.944 69.8047L376.944 137L407.272 137L474.28 98.6094L474.28 137L504.631 137L504.631 69.8047ZM604.461 87.0781C607.156 87.0781 608.68 88.5312 608.68 90.9219C608.68 93.3125 607.156 94.7656 604.461 94.7656L549.359 94.7656L549.359 111.664L604.461 111.664C607.156 111.664 608.68 113.094 608.68 115.484C608.68 117.898 607.156 119.328 604.461 119.328L545.891 119.328C543.219 119.328 541.672 117.898 541.672 115.484L541.672 113.586L511.344 113.586L511.344 115.484C511.344 127.977 521.234 137.586 535.344 137.586L615.031 137.586C629.141 137.586 639.031 129.898 639.031 117.406C639.031 110.984 636.055 106.18 630.945 103.203C636.055 100.227 639.031 95.4219 639.031 89C639.031 76.5312 629.141 68.8438 615.031 68.8438L535.344 68.8438C521.234 68.8438 511.344 78.4297 511.344 90.9219L511.344 92.8438L541.672 92.8438L541.672 90.9219C541.672 88.5312 543.219 87.0781 545.891 87.0781L604.461 87.0781ZM645.744 137L676.072 137L676.072 114.922L743.08 114.922L743.08 137L773.431 137L773.431 69.8047L743.08 69.8047L743.08 91.8828L676.072 91.8828L676.072 69.8047L645.744 69.8047L645.744 137ZM781.104 137L905.908 137L905.908 119.727L811.432 119.727L811.432 112.039L905.908 112.039L905.908 94.7656L811.432 94.7656L811.432 87.0781L905.908 87.0781L905.908 69.8047L781.104 69.8047L781.104 137ZM1036.47 112.039L951.508 112.039C946.211 112.039 941.898 108.688 941.898 103.391C941.898 98.1172 946.211 94.7656 951.508 94.7656L1036.47 94.7656L1036.47 69.8047L945.25 69.8047C926.734 69.8047 911.664 84.875 911.664 103.391C911.664 121.93 926.734 137 945.25 137L1036.47 137L1036.47 112.039ZM306.852 196.922L344.211 243L378.383 243L323.938 175.805L289.766 175.805L235.344 243L269.516 243L306.852 196.922ZM403.33 174.844C384.814 174.844 369.744 190.875 369.744 209.391C369.744 227.93 384.814 243.961 403.33 243.961L473.431 243.961C491.947 243.961 507.017 227.93 507.017 209.391C507.017 190.875 491.947 174.844 473.431 174.844L403.33 174.844ZM467.173 199.805C472.47 199.805 476.783 204.117 476.783 209.391C476.783 214.688 472.47 219 467.173 219L409.587 219C404.291 219 399.978 214.688 399.978 209.391C399.978 204.117 404.291 199.805 409.587 199.805L467.173 199.805ZM512.784 243L543.112 243L543.112 198.844L627.979 198.844L627.979 175.805L512.784 175.805L512.784 243ZM763.351 175.805L733 175.805L665.992 214.195L665.992 175.805L635.664 175.805L635.664 243L665.992 243L733 204.609L733 243L763.351 243L763.351 175.805ZM771.024 243L801.352 243L828.047 224.578L854.742 243L898.711 243L850.032 209.391L898.711 175.805L854.742 175.805L801.352 212.672L801.352 175.805L771.024 175.805L771.024 243ZM972.132 196.922L986.147 214.195L958.116 214.195L972.132 196.922ZM955.046 175.805L900.624 243L934.796 243L942.577 233.391L1001.71 233.391L1009.49 243L1043.66 243L989.218 175.805L955.046 175.805Z" fill="url(#paint_linear_7)" fill-rule="nonzero" />
	</g>
</svg>
