<svg viewBox="0 0 1280 332" xmlns="http://www.w3.org/2000/svg" xmlns:xlink="http://www.w3.org/1999/xlink" width="1280.000000" height="332.000000" fill="none" clip-path="url(#clipPath_7)" customFrame="url(#clipPath_7)">
	<defs>
		<clipPath id="clipPath_7">
			<rect width="1280.000000" height="332.000000" x="0.000000" y="0.000000" rx="30.000000" fill="rgb(255,255,255)" />
		</clipPath>
		<g id="pixso_custom_effect_14">
			<effect x="0.000000" y="0.000000" visibility="visible" fill="rgb(127,216,106)" fill-opacity="0.5" effectType="dropShadow" stdDeviation="30" radius="0" />
		</g>
		<filter id="filter_14" width="981.000000" height="195.882812" x="149.000000" y="63.382812" filterUnits="userSpaceOnUse" customEffect="url(#pixso_custom_effect_14)" color-interpolation-filters="sRGB">
			<feFlood flood-opacity="0" result="BackgroundImageFix" />
			<feOffset dx="0.000000" dy="0.000000" in="SourceAlpha" />
			<feGaussianBlur stdDeviation="10" />
			<feColorMatrix type="matrix" values="0 0 0 0 0.498039 0 0 0 0 0.847059 0 0 0 0 0.415686 0 0 0 0.5 0 " />
			<feBlend result="effect_dropShadow_1" in2="BackgroundImageFix" mode="normal" />
			<feBlend result="shape" in="SourceGraphic" in2="effect_dropShadow_1" mode="normal" />
		</filter>
		<linearGradient id="paint_linear_10" x1="149.000061" x2="1130.00024" y1="165.999969" y2="166.000015" gradientUnits="userSpaceOnUse">
<stop stop-color="rgb(122,199,85)" offset="0" />
		   <stop stop-color="rgb(149,255,147)" offset="0.2" />
		   <stop stop-color="rgb(122,199,85)" offset="0.6" />
		   <stop stop-color="rgb(149,255,147)" offset="0.8" />
		   <stop stop-color="rgb(122,199,85)" offset="1" />

			<animate xmlns="http://www.w3.org/2000/svg" attributeName="x1" from="-100%" to="100%" dur="5s" repeatCount="indefinite" />
			<animate xmlns="http://www.w3.org/2000/svg" attributeName="x2" from="0%" to="200%" dur="5s" repeatCount="indefinite" />
		</linearGradient>
	</defs>
	<rect id="conduct" width="1280.000000" height="332.000000" x="0.000000" y="0.000000" rx="30.000000" />
	<g filter="url(#filter_14)">
		<path id="" d="M344.663 144.5L367.409 144.5L387.43 130.684L407.452 144.5L440.428 144.5L403.919 119.293L440.428 94.1035L407.452 94.1035L367.409 121.754L367.409 94.1035L344.663 94.1035L344.663 144.5ZM458.412 93.3828C444.526 93.3828 433.223 105.406 433.223 119.293C433.223 133.197 444.526 145.221 458.412 145.221L510.988 145.221C524.875 145.221 536.178 133.197 536.178 119.293C536.178 105.406 524.875 93.3828 510.988 93.3828L458.412 93.3828ZM506.295 112.104C510.268 112.104 513.502 115.338 513.502 119.293C513.502 123.266 510.268 126.5 506.295 126.5L463.106 126.5C459.133 126.5 455.899 123.266 455.899 119.293C455.899 115.338 459.133 112.104 463.106 112.104L506.295 112.104ZM574.116 117.939C576.137 113.545 579.53 111.383 584.346 111.383L619.274 111.383L619.274 127.221L569.809 127.221L574.116 117.939ZM647.786 150.266L647.786 127.221L642.02 127.221L642.02 94.1035L578.739 94.1035C566.206 94.1035 557.487 99.7109 552.231 111.172L544.971 127.221L536.903 127.221L536.903 150.266L559.649 150.266L559.649 144.5L625.022 144.5L625.022 150.266L647.786 150.266ZM652.823 144.5L746.426 144.5L746.426 131.545L675.569 131.545L675.569 125.779L746.426 125.779L746.426 112.824L675.569 112.824L675.569 107.059L746.426 107.059L746.426 94.1035L652.823 94.1035L652.823 144.5ZM752.183 144.5L774.929 144.5L794.95 130.684L814.972 144.5L847.948 144.5L811.439 119.293L847.948 94.1035L814.972 94.1035L774.929 121.754L774.929 94.1035L752.183 94.1035L752.183 144.5ZM934.346 125.779L870.626 125.779C866.653 125.779 863.419 123.266 863.419 119.293C863.419 115.338 866.653 112.824 870.626 112.824L934.346 112.824L934.346 94.1035L865.932 94.1035C852.046 94.1035 840.743 105.406 840.743 119.293C840.743 133.197 852.046 144.5 865.932 144.5L934.346 144.5L934.346 125.779ZM179.783 223.5L202.529 223.5L202.529 190.383L252.785 190.383L252.785 223.5L275.548 223.5L275.548 173.104L179.783 173.104L179.783 223.5ZM305.052 172.383C291.166 172.383 279.863 184.406 279.863 198.293C279.863 212.197 291.166 224.221 305.052 224.221L357.628 224.221C371.515 224.221 382.818 212.197 382.818 198.293C382.818 184.406 371.515 172.383 357.628 172.383L305.052 172.383ZM352.935 191.104C356.908 191.104 360.142 194.338 360.142 198.293C360.142 202.266 356.908 205.5 352.935 205.5L309.746 205.5C305.773 205.5 302.539 202.266 302.539 198.293C302.539 194.338 305.773 191.104 309.746 191.104L352.935 191.104ZM409.889 204.779L456.981 204.779C459.002 204.779 460.145 205.852 460.145 207.662C460.145 209.455 459.002 210.545 456.981 210.545L409.889 210.545L409.889 204.779ZM456.981 186.059C459.002 186.059 460.145 187.148 460.145 188.941C460.145 190.734 459.002 191.824 456.981 191.824L409.889 191.824L409.889 186.059L456.981 186.059ZM464.908 223.5C475.49 223.5 482.908 218.455 482.908 209.104C482.908 204.199 480.588 200.525 476.633 198.293C480.588 196.061 482.908 192.404 482.908 187.5C482.908 178.148 475.49 173.104 464.908 173.104L387.143 173.104L387.143 223.5L464.908 223.5ZM487.943 223.5L581.546 223.5L581.546 210.545L510.689 210.545L510.689 204.779L581.546 204.779L581.546 191.824L510.689 191.824L510.689 186.059L581.546 186.059L581.546 173.104L487.943 173.104L487.943 223.5ZM623.076 196.939C625.097 192.545 628.49 190.383 633.306 190.383L668.234 190.383L668.234 206.221L618.769 206.221L623.076 196.939ZM696.746 229.266L696.746 206.221L690.98 206.221L690.98 173.104L627.699 173.104C615.166 173.104 606.447 178.711 601.191 190.172L593.931 206.221L585.863 206.221L585.863 229.266L608.609 229.266L608.609 223.5L673.982 223.5L673.982 229.266L696.746 229.266ZM701.783 223.5L795.386 223.5L795.386 210.545L724.529 210.545L724.529 204.779L795.386 204.779L795.386 191.824L724.529 191.824L724.529 186.059L795.386 186.059L795.386 173.104L701.783 173.104L701.783 223.5ZM801.143 223.5L823.889 223.5L823.889 206.941L874.145 206.941L874.145 223.5L896.908 223.5L896.908 173.104L874.145 173.104L874.145 189.662L823.889 189.662L823.889 173.104L801.143 173.104L801.143 223.5ZM998.428 173.104L975.665 173.104L925.409 201.896L925.409 173.104L902.663 173.104L902.663 223.5L925.409 223.5L975.665 194.707L975.665 223.5L998.428 223.5L998.428 173.104ZM1029.37 196.148C1027.37 196.148 1026.21 195.059 1026.21 193.266C1026.21 191.455 1027.37 190.383 1029.37 190.383L1076.46 190.383L1076.46 196.148L1029.37 196.148ZM1023.62 173.104C1011.02 173.104 1003.46 183.176 1003.46 193.266C1003.46 201.967 1009.14 210.686 1018.79 212.918L1003.46 223.5L1032.33 223.5L1046.95 213.428L1076.46 213.428L1076.46 223.5L1099.23 223.5L1099.23 173.104L1023.62 173.104Z" fill="url(#paint_linear_10)" fill-rule="nonzero" />
	</g>
</svg>
