<svg viewBox="0 0 1280 332" xmlns="http://www.w3.org/2000/svg" xmlns:xlink="http://www.w3.org/1999/xlink" width="1280.000000" height="332.000000" fill="none" clip-path="url(#clipPath_8)" customFrame="url(#clipPath_8)">
	<defs>
		<clipPath id="clipPath_8">
			<rect width="1280.000000" height="332.000000" x="0.000000" y="0.000000" rx="30.000000" fill="rgb(255,255,255)" />
		</clipPath>
		<g id="pixso_custom_effect_15">
			<effect x="0.000000" y="0.000000" visibility="visible" fill="rgb(127,216,106)" fill-opacity="0.5" effectType="dropShadow" stdDeviation="30" radius="0" />
		</g>
		<filter id="filter_15" width="1025.372070" height="235.117188" x="126.815430" y="38.843750" filterUnits="userSpaceOnUse" customEffect="url(#pixso_custom_effect_15)" color-interpolation-filters="sRGB">
			<feFlood flood-opacity="0" result="BackgroundImageFix" />
			<feOffset dx="0.000000" dy="0.000000" in="SourceAlpha" />
			<feGaussianBlur stdDeviation="10" />
			<feColorMatrix type="matrix" values="0 0 0 0 0.498039 0 0 0 0 0.847059 0 0 0 0 0.415686 0 0 0 0.5 0 " />
			<feBlend result="effect_dropShadow_1" in2="BackgroundImageFix" mode="normal" />
			<feBlend result="shape" in="SourceGraphic" in2="effect_dropShadow_1" mode="normal" />
		</filter>
		<linearGradient id="paint_linear_11" x1="149.000061" x2="1130.00024" y1="165.999969" y2="166" gradientUnits="userSpaceOnUse">
<stop stop-color="rgb(122,199,85)" offset="0" />
		   <stop stop-color="rgb(149,255,147)" offset="0.2" />
		   <stop stop-color="rgb(122,199,85)" offset="0.6" />
		   <stop stop-color="rgb(149,255,147)" offset="0.8" />
		   <stop stop-color="rgb(122,199,85)" offset="1" />

			<animate xmlns="http://www.w3.org/2000/svg" attributeName="x1" from="-100%" to="100%" dur="5s" repeatCount="indefinite" />
			<animate xmlns="http://www.w3.org/2000/svg" attributeName="x2" from="0%" to="200%" dur="5s" repeatCount="indefinite" />
		</linearGradient>
	</defs>
	<rect id="contr" width="1280.000000" height="332.000000" x="0.000000" y="0.000000" rx="30.000000" />
	<g filter="url(#filter_15)">
		<path id="" d="M243.504 137L273.832 137L300.527 118.578L327.223 137L371.191 137L322.512 103.391L371.191 69.8047L327.223 69.8047L273.832 106.672L273.832 69.8047L243.504 69.8047L243.504 137ZM395.17 68.8438C376.654 68.8438 361.584 84.875 361.584 103.391C361.584 121.93 376.654 137.961 395.17 137.961L465.271 137.961C483.787 137.961 498.857 121.93 498.857 103.391C498.857 84.875 483.787 68.8438 465.271 68.8438L395.17 68.8438ZM459.013 93.8047C464.31 93.8047 468.623 98.1172 468.623 103.391C468.623 108.688 464.31 113 459.013 113L401.428 113C396.131 113 391.818 108.688 391.818 103.391C391.818 98.1172 396.131 93.8047 401.428 93.8047L459.013 93.8047ZM504.624 137L534.952 137L534.952 114.922L601.96 114.922L601.96 137L632.311 137L632.311 69.8047L601.96 69.8047L601.96 91.8828L534.952 91.8828L534.952 69.8047L504.624 69.8047L504.624 137ZM688.546 137L718.898 137L718.898 92.8438L767.671 92.8438L767.671 69.8047L639.984 69.8047L639.984 92.8438L688.546 92.8438L688.546 137ZM868.461 92.8438C871.156 92.8438 872.68 94.2734 872.68 96.6875C872.68 99.0781 871.156 100.531 868.461 100.531L805.672 100.531L805.672 92.8438L868.461 92.8438ZM805.672 137L805.672 123.57L876.148 123.57C892.93 123.57 903.031 110.117 903.031 96.6875C903.031 83.2344 892.93 69.8047 876.148 69.8047L775.344 69.8047L775.344 137L805.672 137ZM1035.51 69.8047L1005.16 69.8047L938.152 108.195L938.152 69.8047L907.824 69.8047L907.824 137L938.152 137L1005.16 98.6094L1005.16 137L1035.51 137L1035.51 69.8047ZM187.144 225.727L187.144 218.039L249.933 218.039C252.628 218.039 254.152 219.469 254.152 221.883C254.152 224.273 252.628 225.727 249.933 225.727L187.144 225.727ZM260.503 243C274.613 243 284.503 234.352 284.503 221.883C284.503 209.391 274.613 200.766 260.503 200.766L187.144 200.766L187.144 193.078L281.62 193.078L281.62 175.805L156.816 175.805L156.816 243L260.503 243ZM384.333 212.273C387.028 212.273 388.552 213.727 388.552 216.117C388.552 218.531 387.028 219.961 384.333 219.961L321.544 219.961L321.544 212.273L384.333 212.273ZM392.02 243C408.802 243 418.903 229.57 418.903 216.117C418.903 202.688 408.802 189.234 392.02 189.234L321.544 189.234L321.544 175.805L291.216 175.805L291.216 243L392.02 243ZM557.217 199.805C562.514 199.805 566.827 204.117 566.827 209.391C566.827 214.688 562.514 219 557.217 219L499.631 219C494.358 219 490.022 214.688 490.022 209.391C490.022 204.117 494.358 199.805 499.631 199.805L557.217 199.805ZM493.397 174.844C477.835 174.844 464.686 186.164 460.936 200.766L455.944 200.766L455.944 175.805L425.616 175.805L425.616 243L455.944 243L455.944 218.039L460.936 218.039C464.686 232.641 477.835 243.961 493.397 243.961L563.475 243.961C581.991 243.961 597.061 227.93 597.061 209.391C597.061 190.875 581.991 174.844 563.475 174.844L493.397 174.844ZM649.474 243L679.826 243L679.826 198.844L728.599 198.844L728.599 175.805L600.912 175.805L600.912 198.844L649.474 198.844L649.474 243ZM863.959 175.805L833.608 175.805L766.6 214.195L766.6 175.805L736.272 175.805L736.272 243L766.6 243L833.608 204.609L833.608 243L863.959 243L863.959 175.805ZM871.632 243L901.96 243L901.96 220.922L968.968 220.922L968.968 243L999.319 243L999.319 175.805L968.968 175.805L968.968 197.883L901.96 197.883L901.96 175.805L871.632 175.805L871.632 243ZM1006.99 243L1037.32 243L1037.32 198.844L1122.19 198.844L1122.19 175.805L1006.99 175.805L1006.99 243Z" fill="url(#paint_linear_11)" fill-rule="nonzero" />
	</g>
</svg>
