<svg viewBox="0 0 1280 332" xmlns="http://www.w3.org/2000/svg" xmlns:xlink="http://www.w3.org/1999/xlink" width="1280.000000" height="332.000000" fill="none" clip-path="url(#clipPath_10)" customFrame="url(#clipPath_10)">
	<defs>
		<clipPath id="clipPath_10">
			<rect width="1280.000000" height="332.000000" x="0.000000" y="0.000000" rx="30.000000" fill="rgb(255,255,255)" />
		</clipPath>
		<g id="pixso_custom_effect_17">
			<effect x="0.000000" y="0.000000" visibility="visible" fill="rgb(127,216,106)" fill-opacity="0.5" effectType="dropShadow" stdDeviation="30" radius="0" />
		</g>
		<filter id="filter_17" width="981.000000" height="135.843750" x="149.000000" y="91.843750" filterUnits="userSpaceOnUse" customEffect="url(#pixso_custom_effect_17)" color-interpolation-filters="sRGB">
			<feFlood flood-opacity="0" result="BackgroundImageFix" />
			<feOffset dx="0.000000" dy="0.000000" in="SourceAlpha" />
			<feGaussianBlur stdDeviation="10" />
			<feColorMatrix type="matrix" values="0 0 0 0 0.498039 0 0 0 0 0.847059 0 0 0 0 0.415686 0 0 0 0.5 0 " />
			<feBlend result="effect_dropShadow_1" in2="BackgroundImageFix" mode="normal" />
			<feBlend result="shape" in="SourceGraphic" in2="effect_dropShadow_1" mode="normal" />
		</filter>
		<linearGradient id="paint_linear_13" x1="149.000061" x2="1130.00024" y1="165.999985" y2="166.000061" gradientUnits="userSpaceOnUse">
<stop stop-color="rgb(122,199,85)" offset="0" />
		   <stop stop-color="rgb(149,255,147)" offset="0.2" />
		   <stop stop-color="rgb(122,199,85)" offset="0.6" />
		   <stop stop-color="rgb(149,255,147)" offset="0.8" />
		   <stop stop-color="rgb(122,199,85)" offset="1" />

			<animate xmlns="http://www.w3.org/2000/svg" attributeName="x1" from="-100%" to="100%" dur="5s" repeatCount="indefinite" />
			<animate xmlns="http://www.w3.org/2000/svg" attributeName="x2" from="0%" to="200%" dur="5s" repeatCount="indefinite" />
		</linearGradient>
	</defs>
	<rect id="help" width="1280.000000" height="332.000000" x="0.000000" y="0.000000" rx="30.000000" />
	<g filter="url(#filter_17)">
		<path id="" d="M198.96 190L229.288 190L229.288 145.844L296.296 145.844L296.296 190L326.647 190L326.647 122.805L198.96 122.805L198.96 190ZM365.986 121.844C347.47 121.844 332.4 137.875 332.4 156.391C332.4 174.93 347.47 190.961 365.986 190.961L436.087 190.961C454.603 190.961 469.673 174.93 469.673 156.391C469.673 137.875 454.603 121.844 436.087 121.844L365.986 121.844ZM429.829 146.805C435.126 146.805 439.439 151.117 439.439 156.391C439.439 161.688 435.126 166 429.829 166L372.243 166C366.947 166 362.634 161.688 362.634 156.391C362.634 151.117 366.947 146.805 372.243 146.805L429.829 146.805ZM475.44 190L505.768 190L505.768 152.453L536.213 190L570.385 190L602.354 150.555L602.354 190L632.682 190L632.682 122.805L590.635 122.805L553.299 168.883L515.94 122.805L475.44 122.805L475.44 190ZM672.034 121.844C653.518 121.844 638.448 137.875 638.448 156.391C638.448 174.93 653.518 190.961 672.034 190.961L742.135 190.961C760.651 190.961 775.721 174.93 775.721 156.391C775.721 137.875 760.651 121.844 742.135 121.844L672.034 121.844ZM735.877 146.805C741.174 146.805 745.487 151.117 745.487 156.391C745.487 161.688 741.174 166 735.877 166L678.292 166C672.995 166 668.682 161.688 668.682 156.391C668.682 151.117 672.995 146.805 678.292 146.805L735.877 146.805ZM844.652 166.961L811.816 166.961L811.816 122.805L781.488 122.805L781.488 190L915.316 190L915.316 197.688L945.644 197.688L945.644 166.961L937.957 166.961L937.957 122.805L907.628 122.805L907.628 166.961L874.98 166.961L874.98 122.805L844.652 122.805L844.652 166.961ZM1045.48 159.273C1048.18 159.273 1049.7 160.727 1049.7 163.117C1049.7 165.531 1048.18 166.961 1045.48 166.961L982.696 166.961L982.696 159.273L1045.48 159.273ZM1053.17 190C1069.95 190 1080.06 176.57 1080.06 163.117C1080.06 149.688 1069.95 136.234 1053.17 136.234L982.696 136.234L982.696 122.805L952.368 122.805L952.368 190L1053.17 190Z" fill="url(#paint_linear_13)" fill-rule="nonzero" />
	</g>
</svg>
