<svg xmlns="http://www.w3.org/2000/svg" viewBox="0 0 1400 950" width="100%" height="100%">
  <defs>
    <marker id="arrow-green" viewBox="0 0 10 10" refX="8" refY="5" markerWidth="6" markerHeight="6" orient="auto">
      <path d="M 0 0 L 10 5 L 0 10 z" fill="#34c759"/>
    </marker>
    <marker id="arrow-purple" viewBox="0 0 10 10" refX="8" refY="5" markerWidth="6" markerHeight="6" orient="auto">
      <path d="M 0 0 L 10 5 L 0 10 z" fill="#8774e1"/>
    </marker>
    <marker id="arrow-red" viewBox="0 0 10 10" refX="8" refY="5" markerWidth="6" markerHeight="6" orient="auto">
      <path d="M 0 0 L 10 5 L 0 10 z" fill="#e94560"/>
    </marker>
    <marker id="arrow-blue" viewBox="0 0 10 10" refX="8" refY="5" markerWidth="6" markerHeight="6" orient="auto">
      <path d="M 0 0 L 10 5 L 0 10 z" fill="#00adb5"/>
    </marker>
    <marker id="arrow-yellow" viewBox="0 0 10 10" refX="8" refY="5" markerWidth="6" markerHeight="6" orient="auto">
      <path d="M 0 0 L 10 5 L 0 10 z" fill="#ffb703"/>
    </marker>
  </defs>

  <rect width="100%" height="100%" fill="#0a0a0f"/>

  <path d="M 340 275 L 450 275" stroke="#34c759" stroke-width="2" fill="none" marker-end="url(#arrow-green)"/>
  <text x="400" y="265" fill="#34c759" font-size="11" text-anchor="middle" font-family="sans-serif">POST JSON</text>

  <path d="M 340 375 L 450 375" stroke="#34c759" stroke-width="2" fill="none" marker-end="url(#arrow-green)"/>
  <text x="400" y="365" fill="#34c759" font-size="11" text-anchor="middle" font-family="sans-serif">GET / POST</text>

  <path d="M 340 475 L 450 475" stroke="#34c759" stroke-width="2" fill="none" marker-end="url(#arrow-green)"/>
  <text x="400" y="465" fill="#34c759" font-size="11" text-anchor="middle" font-family="sans-serif">QR Request</text>

  <path d="M 740 275 C 800 275, 800 355, 850 355" stroke="#8774e1" stroke-width="2" fill="none" marker-end="url(#arrow-purple)"/>
  <path d="M 740 375 L 850 375" stroke="#8774e1" stroke-width="2" fill="none" marker-end="url(#arrow-purple)"/>
  <path d="M 740 475 L 850 475" stroke="#8774e1" stroke-width="2" fill="none" marker-end="url(#arrow-purple)"/>
  <path d="M 740 575 C 800 575, 800 395, 850 395" stroke="#8774e1" stroke-width="2" fill="none" marker-end="url(#arrow-purple)"/>

  <path d="M 600 310 L 600 700 L 525 700 L 525 760" stroke="#00adb5" stroke-width="2" fill="none" marker-end="url(#arrow-blue)"/>
  <path d="M 600 410 L 600 680 L 675 680 L 675 760" stroke="#00adb5" stroke-width="2" fill="none" marker-end="url(#arrow-blue)"/>
  <path d="M 1000 310 L 1000 810 L 770 810" stroke="#e94560" stroke-width="2" fill="none" marker-end="url(#arrow-red)"/>

  <path d="M 200 240 L 200 130" stroke="#ffb703" stroke-width="2" stroke-dasharray="4,4" fill="none" marker-end="url(#arrow-yellow)"/>
  <path d="M 150 340 L 150 130" stroke="#ffb703" stroke-width="2" stroke-dasharray="4,4" fill="none" marker-end="url(#arrow-yellow)"/>
  <path d="M 1000 340 L 1000 130" stroke="#ffb703" stroke-width="2" fill="none" marker-end="url(#arrow-yellow)"/>
  <path d="M 1140 475 L 1190 475" stroke="#ffb703" stroke-width="2" fill="none" marker-end="url(#arrow-yellow)"/>
  <path d="M 1140 575 L 1190 575" stroke="#ffb703" stroke-width="2" fill="none" marker-end="url(#arrow-yellow)"/>


  <rect x="100" y="60" width="200" height="60" rx="12" fill="#1e1e24" stroke="#ffb703" stroke-width="2"/>
  <text x="200" y="85" fill="#fff" text-anchor="middle" font-weight="bold" font-family="sans-serif">Яндекс.Метрика</text>
  <text x="200" y="105" fill="#a0a0a0" font-size="11" text-anchor="middle" font-family="sans-serif">Сбор веб-аналитики</text>

  <rect x="900" y="60" width="200" height="60" rx="12" fill="#1e1e24" stroke="#ffb703" stroke-width="2"/>
  <text x="1000" y="85" fill="#fff" text-anchor="middle" font-weight="bold" font-family="sans-serif">Cloudflare Turnstile</text>
  <text x="1000" y="105" fill="#a0a0a0" font-size="11" text-anchor="middle" font-family="sans-serif">Защита от ботов и спама</text>

  <rect x="1200" y="445" width="160" height="60" rx="12" fill="#1e1e24" stroke="#ffb703" stroke-width="2"/>
  <text x="1280" y="470" fill="#fff" text-anchor="middle" font-weight="bold" font-family="sans-serif">Telegram Core API</text>
  <text x="1280" y="490" fill="#a0a0a0" font-size="11" text-anchor="middle" font-family="sans-serif">Генерация сессий</text>

  <rect x="1200" y="545" width="160" height="60" rx="12" fill="#1e1e24" stroke="#ffb703" stroke-width="2"/>
  <text x="1280" y="570" fill="#fff" text-anchor="middle" font-weight="bold" font-family="sans-serif">GitHub API</text>
  <text x="1280" y="590" fill="#a0a0a0" font-size="11" text-anchor="middle" font-family="sans-serif">Проверка обновлений</text>


  <rect x="40" y="180" width="320" height="490" rx="16" fill="#111625" stroke="#34c759" stroke-width="2" stroke-dasharray="5,5"/>
  <text x="200" y="215" fill="#34c759" font-size="18" font-weight="bold" font-family="sans-serif" text-anchor="middle">КЛИЕНТ (FRONTEND)</text>

  <rect x="60" y="240" width="280" height="70" rx="8" fill="#1a2235" stroke="#34c759" stroke-width="1"/>
  <text x="200" y="270" fill="#fff" font-size="15" font-weight="bold" text-anchor="middle" font-family="sans-serif">Форма Авторизации</text>
  <text x="200" y="290" fill="#a0a0a0" font-size="12" text-anchor="middle" font-family="sans-serif">login.html / start.html</text>

  <rect x="60" y="340" width="280" height="70" rx="8" fill="#1a2235" stroke="#34c759" stroke-width="1"/>
  <text x="200" y="370" fill="#fff" font-size="15" font-weight="bold" text-anchor="middle" font-family="sans-serif">Интерфейс Мессенджера</text>
  <text x="200" y="390" fill="#a0a0a0" font-size="12" text-anchor="middle" font-family="sans-serif">chat.html / bar.html</text>

  <rect x="60" y="440" width="280" height="70" rx="8" fill="#1a2235" stroke="#34c759" stroke-width="1"/>
  <text x="200" y="470" fill="#fff" font-size="15" font-weight="bold" text-anchor="middle" font-family="sans-serif">JS Обработчики</text>
  <text x="200" y="490" fill="#a0a0a0" font-size="12" text-anchor="middle" font-family="sans-serif">Свитчеры, Контекстное меню</text>

  <rect x="60" y="540" width="280" height="70" rx="8" fill="#1a2235" stroke="#34c759" stroke-width="1"/>
  <text x="200" y="570" fill="#fff" font-size="15" font-weight="bold" text-anchor="middle" font-family="sans-serif">Интерактивные Ошибки</text>
  <text x="200" y="590" fill="#a0a0a0" font-size="12" text-anchor="middle" font-family="sans-serif">Ошибки 403, 404, 500 (Мини-игры)</text>


  <rect x="440" y="180" width="320" height="490" rx="16" fill="#161125" stroke="#8774e1" stroke-width="2" stroke-dasharray="5,5"/>
  <text x="600" y="215" fill="#8774e1" font-size="18" font-weight="bold" font-family="sans-serif" text-anchor="middle">API МАРШРУТЫ (FLASK)</text>

  <rect x="460" y="240" width="280" height="70" rx="8" fill="#221a35" stroke="#8774e1" stroke-width="1"/>
  <text x="600" y="270" fill="#fff" font-size="15" font-weight="bold" text-anchor="middle" font-family="sans-serif">/login &amp; /api/register</text>
  <text x="600" y="290" fill="#a0a0a0" font-size="12" text-anchor="middle" font-family="sans-serif">POST запросы аутентификации</text>

  <rect x="460" y="340" width="280" height="70" rx="8" fill="#221a35" stroke="#8774e1" stroke-width="1"/>
  <text x="600" y="370" fill="#fff" font-size="15" font-weight="bold" text-anchor="middle" font-family="sans-serif">/api/messages</text>
  <text x="600" y="390" fill="#a0a0a0" font-size="12" text-anchor="middle" font-family="sans-serif">GET (история) / POST (отправка)</text>

  <rect x="460" y="440" width="280" height="70" rx="8" fill="#221a35" stroke="#8774e1" stroke-width="1"/>
  <text x="600" y="470" fill="#fff" font-size="15" font-weight="bold" text-anchor="middle" font-family="sans-serif">/api/tg/login</text>
  <text x="600" y="490" fill="#a0a0a0" font-size="12" text-anchor="middle" font-family="sans-serif">Генерация QR-кода Telegram</text>

  <rect x="460" y="540" width="280" height="70" rx="8" fill="#221a35" stroke="#8774e1" stroke-width="1"/>
  <text x="600" y="570" fill="#fff" font-size="15" font-weight="bold" text-anchor="middle" font-family="sans-serif">/api/ping</text>
  <text x="600" y="590" fill="#a0a0a0" font-size="12" text-anchor="middle" font-family="sans-serif">Статус сервера и проверка ключа</text>


  <rect x="840" y="180" width="320" height="490" rx="16" fill="#1a1118" stroke="#e94560" stroke-width="2" stroke-dasharray="5,5"/>
  <text x="1000" y="215" fill="#e94560" font-size="18" font-weight="bold" font-family="sans-serif" text-anchor="middle">ЯДРО СЕРВЕРА</text>

  <rect x="860" y="240" width="280" height="70" rx="8" fill="#2a1a24" stroke="#e94560" stroke-width="1"/>
  <text x="1000" y="270" fill="#fff" font-size="15" font-weight="bold" text-anchor="middle" font-family="sans-serif">Инициализация Flask &amp; Env</text>
  <text x="1000" y="290" fill="#a0a0a0" font-size="12" text-anchor="middle" font-family="sans-serif">Загрузка .env, db.create_all()</text>

  <rect x="860" y="340" width="280" height="70" rx="8" fill="#2a1a24" stroke="#e94560" stroke-width="1"/>
  <text x="1000" y="370" fill="#fff" font-size="15" font-weight="bold" text-anchor="middle" font-family="sans-serif">Валидация и Безопасность</text>
  <text x="1000" y="390" fill="#a0a0a0" font-size="12" text-anchor="middle" font-family="sans-serif">Хэширование, XSS экранирование</text>

  <rect x="860" y="440" width="280" height="70" rx="8" fill="#2a1a24" stroke="#e94560" stroke-width="1"/>
  <text x="1000" y="470" fill="#fff" font-size="15" font-weight="bold" text-anchor="middle" font-family="sans-serif">Сессии Telethon</text>
  <text x="1000" y="490" fill="#a0a0a0" font-size="12" text-anchor="middle" font-family="sans-serif">asyncio.run() qr_login()</text>

  <rect x="860" y="540" width="280" height="70" rx="8" fill="#2a1a24" stroke="#e94560" stroke-width="1"/>
  <text x="1000" y="570" fill="#fff" font-size="15" font-weight="bold" text-anchor="middle" font-family="sans-serif">Фоновые Задачи</text>
  <text x="1000" y="590" fill="#a0a0a0" font-size="12" text-anchor="middle" font-family="sans-serif">Логирование и проверка релизов</text>


  <rect x="440" y="720" width="320" height="150" rx="16" fill="#0b1a2a" stroke="#00adb5" stroke-width="2" stroke-dasharray="5,5"/>
  <text x="600" y="750" fill="#00adb5" font-size="18" font-weight="bold" font-family="sans-serif" text-anchor="middle">БАЗА ДАННЫХ (SQLITE)</text>

  <rect x="460" y="770" width="130" height="80" rx="8" fill="#112a40" stroke="#00adb5" stroke-width="1"/>
  <text x="525" y="805" fill="#fff" font-size="14" font-weight="bold" text-anchor="middle" font-family="sans-serif">User Model</text>
  <text x="525" y="825" fill="#a0a0a0" font-size="10" text-anchor="middle" font-family="sans-serif">ID, FIO, Hash, Group</text>

  <rect x="610" y="770" width="130" height="80" rx="8" fill="#112a40" stroke="#00adb5" stroke-width="1"/>
  <text x="675" y="805" fill="#fff" font-size="14" font-weight="bold" text-anchor="middle" font-family="sans-serif">Message Model</text>
  <text x="675" y="825" fill="#a0a0a0" font-size="10" text-anchor="middle" font-family="sans-serif">UserID, Content, Time</text>

</svg>