<svg viewBox="0 0 1448.16 135.844" xmlns="http://www.w3.org/2000/svg" xmlns:xlink="http://www.w3.org/1999/xlink" width="1448.164062" height="135.843750" fill="none" customFrame="#000000">
	<defs>
		<g id="pixso_custom_effect_4">
			<effect x="0.000000" y="0.000000" visibility="visible" fill="rgb(127,216,106)" fill-opacity="0.5" effectType="dropShadow" stdDeviation="30" radius="0" />
		</g>
		<filter id="filter_4" width="1448.164062" height="135.843750" x="0.000000" y="0.000000" filterUnits="userSpaceOnUse" customEffect="url(#pixso_custom_effect_4)" color-interpolation-filters="sRGB">
			<feFlood flood-opacity="0" result="BackgroundImageFix" />
			<feOffset dx="0.000000" dy="0.000000" in="SourceAlpha" />
			<feGaussianBlur stdDeviation="10" />
			<feColorMatrix type="matrix" values="0 0 0 0 0.498039 0 0 0 0 0.847059 0 0 0 0 0.415686 0 0 0 0.5 0 " />
			<feBlend result="effect_dropShadow_1" in2="BackgroundImageFix" mode="normal" />
			<feBlend result="shape" in="SourceGraphic" in2="effect_dropShadow_1" mode="normal" />
		</filter>
		<linearGradient id="paint_linear_4" x1="15.5762587" x2="1432.57642" y1="74.1562347" y2="74.1563797" gradientUnits="userSpaceOnUse">
			<stop stop-color="rgb(122,199,85)" offset="0" stop-opacity="1" />
			<stop stop-color="rgb(149,255,147)" offset="0.200000003" stop-opacity="1" />
			<stop stop-color="rgb(120,204,94)" offset="0.600000024" stop-opacity="1" />
			<stop stop-color="rgb(175.915,255,174.423)" offset="0.800000012" stop-opacity="1" />
			<stop stop-color="rgb(91,194,89)" offset="1" stop-opacity="1" />
		</linearGradient>
	</defs>
	<g filter="url(#filter_4)">
		<path id="" d="M154.805 73.1953L69.8437 73.1953C64.5468 73.1953 60.2343 69.8438 60.2343 64.5469C60.2343 59.2734 64.5468 55.9219 69.8437 55.9219L154.805 55.9219L154.805 30.9609L63.5859 30.9609C45.0703 30.9609 29.9999 46.0312 29.9999 64.5469C29.9999 83.0859 45.0703 98.1562 63.5859 98.1562L154.805 98.1562L154.805 73.1953ZM193.186 30C174.67 30 159.6 46.0312 159.6 64.5469C159.6 83.0859 174.67 99.1172 193.186 99.1172L263.287 99.1172C281.803 99.1172 296.873 83.0859 296.873 64.5469C296.873 46.0312 281.803 30 263.287 30L193.186 30ZM257.03 54.9609C262.327 54.9609 266.639 59.2734 266.639 64.5469C266.639 69.8438 262.327 74.1562 257.03 74.1562L199.444 74.1562C194.147 74.1562 189.834 69.8438 189.834 64.5469C189.834 59.2734 194.147 54.9609 199.444 54.9609L257.03 54.9609ZM347.457 62.7422C350.152 56.8828 354.676 54 361.098 54L407.668 54L407.668 75.1172L341.715 75.1172L347.457 62.7422ZM445.684 105.844L445.684 75.1172L437.996 75.1172L437.996 30.9609L353.621 30.9609C336.91 30.9609 325.285 38.4375 318.277 53.7188L308.598 75.1172L297.84 75.1172L297.84 105.844L328.168 105.844L328.168 98.1562L415.332 98.1562L415.332 105.844L445.684 105.844ZM452.4 98.1562L577.205 98.1562L577.205 80.8828L482.728 80.8828L482.728 73.1953L577.205 73.1953L577.205 55.9219L482.728 55.9219L482.728 48.2344L577.205 48.2344L577.205 30.9609L452.4 30.9609L452.4 98.1562ZM677.997 54C680.692 54 682.216 55.4297 682.216 57.8438C682.216 60.2344 680.692 61.6875 677.997 61.6875L615.208 61.6875L615.208 54L677.997 54ZM615.208 98.1562L615.208 84.7266L685.685 84.7266C702.466 84.7266 712.567 71.2734 712.567 57.8438C712.567 44.3906 702.466 30.9609 685.685 30.9609L584.88 30.9609L584.88 98.1562L615.208 98.1562ZM776.103 51.9844L749.22 30.9609L708.72 30.9609L751.634 64.5469L708.72 98.1562L749.22 98.1562L776.103 77.1328L776.103 98.1562L806.454 98.1562L806.454 77.1328L833.314 98.1562L873.837 98.1562L830.923 64.5469L873.837 30.9609L833.314 30.9609L806.454 51.9844L806.454 30.9609L776.103 30.9609L776.103 51.9844ZM947.268 52.0781L961.283 69.3516L933.252 69.3516L947.268 52.0781ZM930.182 30.9609L875.76 98.1562L909.932 98.1562L917.713 88.5469L976.846 88.5469L984.627 98.1562L1018.8 98.1562L964.354 30.9609L930.182 30.9609ZM1022.64 98.1562L1052.97 98.1562L1052.97 76.0781L1119.98 76.0781L1119.98 98.1562L1150.33 98.1562L1150.33 30.9609L1119.98 30.9609L1119.98 53.0391L1052.97 53.0391L1052.97 30.9609L1022.64 30.9609L1022.64 98.1562ZM1285.69 30.9609L1255.34 30.9609L1188.33 69.3516L1188.33 30.9609L1158 30.9609L1158 98.1562L1188.33 98.1562L1255.34 59.7656L1255.34 98.1562L1285.69 98.1562L1285.69 30.9609ZM1293.36 98.1562L1418.16 98.1562L1418.16 80.8828L1323.69 80.8828L1323.69 73.1953L1418.16 73.1953L1418.16 55.9219L1323.69 55.9219L1323.69 48.2344L1418.16 48.2344L1418.16 30.9609L1293.36 30.9609L1293.36 98.1562Z" fill="url(#paint_linear_4)" fill-rule="nonzero" />
	</g>
</svg>
