<svg viewBox="0 0 1280 332" xmlns="http://www.w3.org/2000/svg" xmlns:xlink="http://www.w3.org/1999/xlink" width="1280.000000" height="332.000000" fill="none" clip-path="url(#clipPath_6)" customFrame="url(#clipPath_6)">
	<defs>
		<clipPath id="clipPath_6">
			<rect width="1280.000000" height="332.000000" x="0.000000" y="0.000000" rx="30.000000" fill="rgb(255,255,255)" />
		</clipPath>
		<g id="pixso_custom_effect_13">
			<effect x="0.000000" y="0.000000" visibility="visible" fill="rgb(127,216,106)" fill-opacity="0.5" effectType="dropShadow" stdDeviation="30" radius="0" />
		</g>
		<filter id="filter_13" width="981.000000" height="135.843750" x="149.000000" y="91.843750" filterUnits="userSpaceOnUse" customEffect="url(#pixso_custom_effect_13)" color-interpolation-filters="sRGB">
			<feFlood flood-opacity="0" result="BackgroundImageFix" />
			<feOffset dx="0.000000" dy="0.000000" in="SourceAlpha" />
			<feGaussianBlur stdDeviation="10" />
			<feColorMatrix type="matrix" values="0 0 0 0 0.498039 0 0 0 0 0.847059 0 0 0 0 0.415686 0 0 0 0.5 0 " />
			<feBlend result="effect_dropShadow_1" in2="BackgroundImageFix" mode="normal" />
			<feBlend result="shape" in="SourceGraphic" in2="effect_dropShadow_1" mode="normal" />
		</filter>
		<linearGradient id="paint_linear_9" x1="149.000061" x2="1130.00024" y1="165.999985" y2="166.000061" gradientUnits="userSpaceOnUse">
<stop stop-color="rgb(122,199,85)" offset="0" />
		   <stop stop-color="rgb(149,255,147)" offset="0.2" />
		   <stop stop-color="rgb(122,199,85)" offset="0.6" />
		   <stop stop-color="rgb(149,255,147)" offset="0.8" />
		   <stop stop-color="rgb(122,199,85)" offset="1" />

			<animate xmlns="http://www.w3.org/2000/svg" attributeName="x1" from="-100%" to="100%" dur="5s" repeatCount="indefinite" />
			<animate xmlns="http://www.w3.org/2000/svg" attributeName="x2" from="0%" to="200%" dur="5s" repeatCount="indefinite" />
		</linearGradient>
	</defs>
	<rect id="todo" width="1280.000000" height="332.000000" x="0.000000" y="0.000000" rx="30.000000" />
	<g filter="url(#filter_13)">
		<path id="" d="M325.101 140.078C327.796 140.078 329.32 141.531 329.32 143.922C329.32 146.312 327.796 147.766 325.101 147.766L269.999 147.766L269.999 164.664L325.101 164.664C327.796 164.664 329.32 166.094 329.32 168.484C329.32 170.898 327.796 172.328 325.101 172.328L266.531 172.328C263.859 172.328 262.312 170.898 262.312 168.484L262.312 166.586L231.984 166.586L231.984 168.484C231.984 180.977 241.874 190.586 255.984 190.586L335.671 190.586C349.781 190.586 359.671 182.898 359.671 170.406C359.671 163.984 356.695 159.18 351.585 156.203C356.695 153.227 359.671 148.422 359.671 142C359.671 129.531 349.781 121.844 335.671 121.844L255.984 121.844C241.874 121.844 231.984 131.43 231.984 143.922L231.984 145.844L262.312 145.844L262.312 143.922C262.312 141.531 263.859 140.078 266.531 140.078L325.101 140.078ZM430.212 143.922L444.227 161.195L416.196 161.195L430.212 143.922ZM413.126 122.805L358.704 190L392.876 190L400.657 180.391L459.79 180.391L467.571 190L501.743 190L447.298 122.805L413.126 122.805ZM554.241 154.586C556.936 148.727 561.46 145.844 567.882 145.844L614.452 145.844L614.452 166.961L548.499 166.961L554.241 154.586ZM652.468 197.688L652.468 166.961L644.78 166.961L644.78 122.805L560.405 122.805C543.694 122.805 532.069 130.281 525.061 145.562L515.382 166.961L504.624 166.961L504.624 197.688L534.952 197.688L534.952 190L622.116 190L622.116 197.688L652.468 197.688ZM727.812 143.922L741.827 161.195L713.796 161.195L727.812 143.922ZM710.726 122.805L656.304 190L690.476 190L698.257 180.391L757.39 180.391L765.171 190L799.343 190L744.898 122.805L710.726 122.805ZM881.32 190L911.671 190L911.671 122.805L881.32 122.805L881.32 147.766L823.921 147.766C817.687 147.766 814.312 144.391 814.312 138.156L814.312 122.805L783.984 122.805L783.984 138.156C783.984 160.539 797.132 172.727 817.57 172.727L881.32 172.727L881.32 190ZM1047.03 122.805L1016.68 122.805L949.672 161.195L949.672 122.805L919.344 122.805L919.344 190L949.672 190L1016.68 151.609L1016.68 190L1047.03 190L1047.03 122.805Z" fill="url(#paint_linear_9)" fill-rule="nonzero" />
	</g>
</svg>
