<svg viewBox="0 0 1498.55 175.234" xmlns="http://www.w3.org/2000/svg" xmlns:xlink="http://www.w3.org/1999/xlink" width="1498.549805" height="175.234375" fill="none" customFrame="#000000">
	<defs>
		<g id="pixso_custom_effect_3">
			<effect x="0.000000" y="0.000000" visibility="visible" fill="rgb(127,216,106)" fill-opacity="0.5" effectType="dropShadow" stdDeviation="30" radius="0" />
		</g>
		<filter id="filter_3" width="1498.549805" height="175.234375" x="0.000000" y="0.000000" filterUnits="userSpaceOnUse" customEffect="url(#pixso_custom_effect_3)" color-interpolation-filters="sRGB">
			<feFlood flood-opacity="0" result="BackgroundImageFix" />
			<feOffset dx="0.000000" dy="0.000000" in="SourceAlpha" />
			<feGaussianBlur stdDeviation="10" />
			<feColorMatrix type="matrix" values="0 0 0 0 0.498039 0 0 0 0 0.847059 0 0 0 0 0.415686 0 0 0 0.5 0 " />
			<feBlend result="effect_dropаShadow_1" in2="BackgroundImageFix" mode="normal" />
			<feBlend result="shape" in="SourceGraphic" in2="effect_dropShadow_1" mode="normal" />
		</filter>
		<linearGradient id="paint_linear_3" x1="1.27450538" x2="1497.27466" y1="96.2343445" y2="96.2344513" gradientUnits="userSpaceOnUse" spreadMethod="repeat">
		   <stop stop-color="rgb(122,199,85)" offset="0" />
		   <stop stop-color="rgb(149,255,147)" offset="0.2" />
		   <stop stop-color="rgb(122,199,85)" offset="0.6" />
		   <stop stop-color="rgb(149,255,147)" offset="0.8" />
		   <stop stop-color="rgb(122,199,85)" offset="1" />

			<animate xmlns="http://www.w3.org/2000/svg" attributeName="x1" from="-100%" to="100%" dur="5s" repeatCount="indefinite" />
			<animate xmlns="http://www.w3.org/2000/svg" attributeName="x2" from="0%" to="200%" dur="5s" repeatCount="indefinite" />
		</linearGradient>
	</defs>
	<g filter="url(#filter_3)">
		<path id="" d="M102.844 132.234L148.371 132.234L148.371 66L221.531 66L221.531 31.4414L30.0001 31.4414L30.0001 66L102.844 66L102.844 132.234ZM277.659 30C249.886 30 227.28 54.0469 227.28 81.8203C227.28 109.629 249.886 133.676 277.659 133.676L382.811 133.676C410.585 133.676 433.19 109.629 433.19 81.8203C433.19 54.0469 410.585 30 382.811 30L277.659 30ZM373.425 67.4414C381.37 67.4414 387.839 73.9102 387.839 81.8203C387.839 89.7656 381.37 96.2344 373.425 96.2344L287.046 96.2344C279.1 96.2344 272.632 89.7656 272.632 81.8203C272.632 73.9102 279.1 67.4414 287.046 67.4414L373.425 67.4414ZM581.516 66C585.559 66 587.844 68.1445 587.844 71.7656C587.844 75.3516 585.559 77.5312 581.516 77.5312L487.332 77.5312L487.332 66L581.516 66ZM487.332 132.234L487.332 112.09L545.375 112.09L574.59 132.234L633.371 132.234L602.68 111.07C621.981 106.605 633.371 89.168 633.371 71.7656C633.371 51.5859 618.219 31.4414 593.047 31.4414L441.84 31.4414L441.84 132.234L487.332 132.234ZM642 132.234L687.492 132.234L687.492 74.6484L788.004 132.234L833.531 132.234L833.531 31.4414L788.004 31.4414L788.004 89.0273L687.492 31.4414L642 31.4414L642 132.234ZM946.542 63.1172L967.565 89.0273L925.518 89.0273L946.542 63.1172ZM920.913 31.4414L839.28 132.234L890.538 132.234L902.21 117.82L990.909 117.82L1002.58 132.234L1053.84 132.234L972.171 31.4414L920.913 31.4414ZM1205.04 132.234C1232.81 132.234 1255.42 109.629 1255.42 81.8203C1255.42 54.0469 1232.81 31.4414 1205.04 31.4414L1059.6 31.4414L1059.6 132.234L1205.04 132.234ZM1104.95 67.4414L1194.95 67.4414C1203.88 67.4414 1210.07 73.4883 1210.07 81.8203C1210.07 90.1875 1203.88 96.2344 1194.95 96.2344L1104.95 96.2344L1104.95 67.4414ZM1313.02 30C1285.25 30 1262.64 54.0469 1262.64 81.8203C1262.64 109.629 1285.25 133.676 1313.02 133.676L1418.17 133.676C1445.94 133.676 1468.55 109.629 1468.55 81.8203C1468.55 54.0469 1445.94 30 1418.17 30L1313.02 30ZM1408.78 67.4414C1416.73 67.4414 1423.2 73.9102 1423.2 81.8203C1423.2 89.7656 1416.73 96.2344 1408.78 96.2344L1322.41 96.2344C1314.46 96.2344 1307.99 89.7656 1307.99 81.8203C1307.99 73.9102 1314.46 67.4414 1322.41 67.4414L1408.78 67.4414Z" fill="url(#paint_linear_3)" fill-rule="nonzero" />
	</g>
</svg>
