<svg viewBox="0 0 183 22" xmlns="http://www.w3.org/2000/svg" xmlns:xlink="http://www.w3.org/1999/xlink" width="183.000000" height="22.000000" fill="none" customFrame="#000000">
	<path id="logo" d="M35.9443 22Q32.1124 22 29.2279 20.6276Q27.0215 19.5726 25.5625 17.8751Q25.114 17.3534 24.7362 16.7711Q24.4696 16.3584 24.2475 15.9231Q23.136 13.7451 23.136 11Q23.136 8.25488 24.2475 6.07695L24.2475 6.07688Q24.4697 5.64158 24.7362 5.22895Q25.1216 4.63493 25.5804 4.10443L25.5805 4.10436Q27.0351 2.42259 29.2279 1.37929Q32.1124 0 35.9443 0C38.499 0 40.7378 0.459763 42.6608 1.37929C44.5838 2.29424 46.0787 3.57746 47.1455 5.22895C48.2169 6.88043 48.7526 8.80412 48.7526 11C48.7526 13.1959 48.2169 15.1196 47.1455 16.7711C46.0787 18.4225 44.5838 19.708 42.6608 20.6276C40.7378 21.5425 38.499 22 35.9443 22ZM170.192 22C167.637 22 165.398 21.5425 163.475 20.6276C161.552 19.708 160.055 18.4225 158.984 16.7711Q158.717 16.3584 158.495 15.9231Q157.383 13.7451 157.383 11Q157.383 8.25488 158.495 6.07693Q158.717 5.6416 158.984 5.22895C160.055 3.57746 161.552 2.29424 163.475 1.37929C165.398 0.459763 167.637 0 170.192 0C172.746 0 174.985 0.459763 176.908 1.37929Q179.108 2.42575 180.56 4.11453L180.561 4.11518Q181.013 4.64094 181.393 5.22895C182.464 6.88043 183 8.80412 183 11C183 13.1959 182.464 15.1196 181.393 16.7711Q181.02 17.3476 180.578 17.8646L180.578 17.865Q179.121 19.5694 176.908 20.6276C174.985 21.5425 172.746 22 170.192 22ZM0 0.459763L22.4093 0.459763L22.4093 5.64067L14.1909 5.64067L14.1909 13.8341L8.21837 21.5402L8.21837 5.64067L0 5.64067L0 0.459763ZM57.7826 13.9507L57.7826 21.5402L51.8171 21.5402L51.8171 0.459763L64.6254 0.459763Q67.0888 0.459763 68.9346 1.31067C70.1698 1.87794 71.1313 2.66708 71.8191 3.6781Q72.0149 3.96457 72.1735 4.2703Q72.8508 5.57581 72.8508 7.23269Q72.8508 8.674 72.3096 9.87053Q72.1036 10.3261 71.8191 10.7461C71.1313 11.7571 70.1698 12.544 68.9346 13.1067Q68.2139 13.4362 67.399 13.6371L73.5877 21.5402L66.6817 21.5402L60.9006 13.9507L57.7826 13.9507ZM94.401 14.9295L94.401 0.459763L100.184 0.459763L100.184 21.5402L92.6816 21.5402L82.0349 6.7226L82.0349 21.5402L76.2518 21.5402L76.2518 0.459763L83.9719 0.459763L94.401 14.9295ZM119.865 0.459763L129.684 21.5402L123.318 21.5402L121.523 17.4847L110.381 17.4847L108.587 21.5402L102.222 21.5402L112.04 0.459763L119.865 0.459763ZM142.47 0.459763Q146.302 0.459763 149.18 1.77729C151.098 2.65107 152.591 3.87711 153.657 5.4554C154.729 7.02911 155.265 8.87731 155.265 11C155.265 13.109 154.729 14.9549 153.657 16.5377C152.591 18.1206 151.098 19.3512 149.18 20.2296Q146.302 21.5402 142.47 21.5402L131.704 21.5402L131.704 0.459763L142.47 0.459763ZM57.7826 9.67561L63.7972 9.67561C64.7424 9.67561 65.4816 9.46288 66.015 9.03743C66.5531 8.6074 66.8221 8.00582 66.8221 7.23269C66.8221 6.45498 66.5531 5.85569 66.015 5.43481C65.4816 5.00936 64.7424 4.79663 63.7972 4.79663L57.7826 4.79663L57.7826 9.67561ZM119.448 12.7979L115.95 4.89469L112.454 12.7979L119.448 12.7979ZM35.9443 16.7985C37.3433 16.7985 38.5481 16.5652 39.5587 16.0986C40.5694 15.6319 41.3507 14.964 41.9028 14.0948Q41.948 14.0237 41.9907 13.9512L41.9911 13.9504Q42.731 12.6928 42.731 11Q42.731 9.30716 41.9911 8.04957Q41.9482 7.97664 41.9028 7.90518C41.3507 7.03597 40.5694 6.36806 39.5587 5.90143C38.5481 5.43481 37.3433 5.2015 35.9443 5.2015Q33.8599 5.2015 32.3299 5.90143C31.3146 6.36806 30.5309 7.03597 29.9788 7.90518C29.4314 8.77438 29.1577 9.80599 29.1577 11C29.1577 12.194 29.4314 13.2256 29.9788 14.0948C30.5309 14.964 31.3146 15.6319 32.3299 16.0986Q33.8599 16.7985 35.9443 16.7985ZM170.192 16.7985C171.591 16.7985 172.795 16.5652 173.806 16.0986C174.817 15.6319 175.598 14.964 176.15 14.0948C176.702 13.2256 176.978 12.194 176.978 11C176.978 9.80599 176.702 8.77438 176.15 7.90518C175.598 7.03597 174.817 6.36806 173.806 5.90143C172.795 5.43481 171.591 5.2015 170.192 5.2015C168.802 5.2015 167.597 5.43481 166.577 5.90143Q165.435 6.42632 164.684 7.29078L164.683 7.29141Q164.433 7.57945 164.226 7.90518Q164.195 7.95454 164.165 8.00459L164.157 8.01773Q163.405 9.28568 163.405 11Q163.405 12.7143 164.157 13.9823L164.165 13.9953Q164.195 14.0454 164.226 14.0948Q164.433 14.4206 164.683 14.7086L164.684 14.7092Q165.435 15.5737 166.577 16.0986C167.597 16.5652 168.802 16.7985 170.192 16.7985ZM137.642 16.3593L142.919 16.3593C144.211 16.3593 145.329 16.1397 146.274 15.7006Q147.421 15.1647 148.145 14.2819L148.146 14.281Q148.321 14.0677 148.471 13.8341C148.986 13.0289 149.243 12.0842 149.243 11C149.243 9.89748 148.986 8.95051 148.471 8.15908Q148.324 7.93248 148.154 7.72517Q147.429 6.84005 146.274 6.3063Q144.857 5.64067 142.919 5.64067L137.642 5.64067L137.642 16.3593Z" fill="rgb(20,20,20)" fill-rule="evenodd" />
</svg>
